<?xml version="1.0" encoding="UTF-8"?>
<!DOCTYPE svg PUBLIC "-//W3C//DTD SVG 1.1//EN" "http://www.w3.org/Graphics/SVG/1.1/DTD/svg11.dtd">
<svg xmlns="http://www.w3.org/2000/svg" version="1.1" width="1355px" height="1280px" style="shape-rendering:geometricPrecision; text-rendering:geometricPrecision; image-rendering:optimizeQuality; fill-rule:evenodd; clip-rule:evenodd" xmlns:xlink="http://www.w3.org/1999/xlink">
<g><path style="opacity:1" fill="#fefefe" d="M -0.5,-0.5 C 451.167,-0.5 902.833,-0.5 1354.5,-0.5C 1354.5,426.167 1354.5,852.833 1354.5,1279.5C 902.833,1279.5 451.167,1279.5 -0.5,1279.5C -0.5,852.833 -0.5,426.167 -0.5,-0.5 Z"/></g>
<g><path style="opacity:1" fill="#848484" d="M 549.5,267.5 C 762,266.167 974.667,266.167 1187.5,267.5C 1187.38,268.107 1187.04,268.44 1186.5,268.5C 974.334,267.5 762.001,267.167 549.5,267.5 Z"/></g>
<g><path style="opacity:1" fill="#2e2e2e" d="M 549.5,267.5 C 762.001,267.167 974.334,267.5 1186.5,268.5C 1118.9,336.267 1051.57,404.101 984.5,472C 839.833,472.333 695.167,472.667 550.5,473C 519.298,504.035 488.298,535.201 457.5,566.5C 456.522,566.811 455.855,567.478 455.5,568.5C 504.332,569.167 552.998,569.833 601.5,570.5C 542.72,629.781 483.387,689.281 423.5,749C 406.656,741.366 388.99,736.033 370.5,733C 312.309,729.345 267.476,751.845 236,800.5C 214.762,839.765 211.762,880.432 227,922.5C 233.495,937.505 241.995,951.172 252.5,963.5C 197.336,964.499 142.003,964.832 86.5,964.5C 86.3333,886.833 86.5,809.166 87,731.5C 241.116,576.551 395.282,421.885 549.5,267.5 Z"/></g>
<g><path style="opacity:1" fill="#858585" d="M 724.5,509.5 C 798.668,508.168 873.001,508.168 947.5,509.5C 947.376,510.107 947.043,510.44 946.5,510.5C 872.669,509.501 798.669,509.167 724.5,509.5 Z"/></g>
<g><path style="opacity:1" fill="#2e2e2e" d="M 724.5,509.5 C 798.669,509.167 872.669,509.501 946.5,510.5C 859.983,596.504 773.65,683.004 687.5,770C 712.167,770.667 736.833,770.667 761.5,770C 821.251,710.416 880.585,650.916 939.5,591.5C 975.671,591.168 1011.67,591.502 1047.5,592.5C 988.535,651.797 929.868,710.797 871.5,769.5C 870.957,769.56 870.624,769.893 870.5,770.5C 895.33,771.829 919.997,771.829 944.5,770.5C 1016.3,698.534 1087.97,626.367 1159.5,554C 1207.17,553.333 1254.83,553.333 1302.5,554C 1189.88,667.458 1076.88,780.958 963.5,894.5C 940.661,894.831 917.994,894.497 895.5,893.5C 900.13,893.648 902.63,891.314 903,886.5C 906.195,885.149 908.028,882.815 908.5,879.5C 909.5,879.5 910.5,879.5 911.5,879.5C 911.5,878.167 911.5,876.833 911.5,875.5C 911.5,875.167 911.5,874.833 911.5,874.5C 913.886,873.627 915.886,872.127 917.5,870C 921.641,869.69 923.975,867.523 924.5,863.5C 925.5,863.5 926.5,863.5 927.5,863.5C 927.5,862.167 927.5,860.833 927.5,859.5C 928.552,859.649 929.552,859.483 930.5,859C 932.333,855.833 934.833,853.333 938,851.5C 938.49,850.207 938.657,848.873 938.5,847.5C 940.167,846.167 941.833,844.833 943.5,843.5C 944.552,843.649 945.552,843.483 946.5,843C 951.9,833.93 959.067,826.43 968,820.5C 968.635,819.034 969.469,817.7 970.5,816.5C 970.376,815.893 970.043,815.56 969.5,815.5C 959.833,815.5 950.167,815.5 940.5,815.5C 938.801,815.34 937.134,815.506 935.5,816C 932.606,819.391 929.606,822.558 926.5,825.5C 921.092,825.574 917.759,828.241 916.5,833.5C 913.55,836.288 910.217,838.455 906.5,840C 904.338,841.645 903.005,843.812 902.5,846.5C 901.311,847.429 899.978,847.762 898.5,847.5C 897.135,851.351 894.635,854.351 891,856.5C 889.872,858.345 889.372,860.345 889.5,862.5C 879.27,873.148 868.937,883.648 858.5,894C 849.506,894.5 840.506,894.666 831.5,894.5C 833.025,892.964 835.025,891.964 837.5,891.5C 838.348,887.983 840.348,885.316 843.5,883.5C 844.246,882.264 844.579,880.93 844.5,879.5C 847.524,878.571 850.358,877.238 853,875.5C 854.262,872.243 856.262,869.577 859,867.5C 859.49,866.207 859.657,864.873 859.5,863.5C 860.833,863.5 862.167,863.5 863.5,863.5C 863.5,862.167 863.5,860.833 863.5,859.5C 865.308,859.509 866.975,859.009 868.5,858C 870,855.167 872.167,853 875,851.5C 875.49,850.207 875.657,848.873 875.5,847.5C 878.487,846.742 881.487,845.909 884.5,845C 884.996,840.496 887.163,836.996 891,834.5C 891.483,833.552 891.649,832.552 891.5,831.5C 892.833,831.5 894.167,831.5 895.5,831.5C 895.5,830.167 895.5,828.833 895.5,827.5C 899.251,827.918 901.418,826.251 902,822.5C 903.441,821.13 905.108,820.13 907,819.5C 909.272,816.511 908.439,815.178 904.5,815.5C 901.5,815.5 898.5,815.5 895.5,815.5C 834.167,815.5 772.833,815.5 711.5,815.5C 686.881,839.452 662.548,863.785 638.5,888.5C 636.631,889.624 634.631,890.457 632.5,891C 631.663,892.011 631.33,893.178 631.5,894.5C 608.833,894.5 586.167,894.5 563.5,894.5C 563.167,852.161 563.5,809.828 564.5,767.5C 595.602,735.731 626.935,704.398 658.5,673.5C 659.043,673.44 659.376,673.107 659.5,672.5C 627.669,671.833 596.003,671.167 564.5,670.5C 617.835,617.365 671.169,563.698 724.5,509.5 Z"/></g>
<g><path style="opacity:1" fill="#d8d8d8" d="M 457.5,566.5 C 480.49,567.833 503.824,568.5 527.5,568.5C 551.071,568.498 574.571,568.164 598,567.5C 599.509,568.09 601.009,568.756 602.5,569.5C 602.376,570.107 602.043,570.44 601.5,570.5C 552.998,569.833 504.332,569.167 455.5,568.5C 455.855,567.478 456.522,566.811 457.5,566.5 Z"/></g>
<g><path style="opacity:1" fill="#5f5f5f" d="M 939.5,591.5 C 975.669,590.17 1012,590.17 1048.5,591.5C 1048.38,592.107 1048.04,592.44 1047.5,592.5C 1011.67,591.502 975.671,591.168 939.5,591.5 Z"/></g>
<g><path style="opacity:1" fill="#9c9c9c" d="M 564.5,670.5 C 596.003,671.167 627.669,671.833 659.5,672.5C 659.376,673.107 659.043,673.44 658.5,673.5C 626.997,672.833 595.331,672.167 563.5,671.5C 563.624,670.893 563.957,670.56 564.5,670.5 Z"/></g>
<g><path style="opacity:1" fill="#6e6e6e" d="M 871.5,769.5 C 895.661,770.498 919.994,770.831 944.5,770.5C 919.997,771.829 895.33,771.829 870.5,770.5C 870.624,769.893 870.957,769.56 871.5,769.5 Z"/></g>
<g><path style="opacity:1" fill="#2e2e2e" d="M 341.5,777.5 C 393.159,774.723 427.992,797.39 446,845.5C 455.326,890.878 440.826,926.378 402.5,952C 357.889,973.927 318.389,967.093 284,931.5C 262.192,903.066 256.859,871.733 268,837.5C 282.074,804.568 306.574,784.568 341.5,777.5 Z"/></g>
<g><path style="opacity:1" fill="#7f3d46" d="M 711.5,815.5 C 772.833,815.5 834.167,815.5 895.5,815.5C 895.5,816.833 895.5,818.167 895.5,819.5C 889.284,818.787 884.284,820.787 880.5,825.5C 879.548,823.955 879.215,822.288 879.5,820.5C 823.393,820.368 767.393,820.534 711.5,821C 709.858,824.48 707.191,826.647 703.5,827.5C 704.382,825.616 705.882,824.283 708,823.5C 709.993,821.182 711.159,818.516 711.5,815.5 Z"/></g>
<g><path style="opacity:1" fill="#863a42" d="M 895.5,815.5 C 898.5,815.5 901.5,815.5 904.5,815.5C 901.395,820.36 897.395,824.36 892.5,827.5C 891.448,827.351 890.448,827.517 889.5,828C 886.479,832.018 883.146,835.684 879.5,839C 874.552,840.717 871.885,844.217 871.5,849.5C 868.278,850.555 866.278,852.721 865.5,856C 860.987,856.683 858.32,859.183 857.5,863.5C 849.952,871.56 842.452,879.894 835,888.5C 833.172,890.081 831.172,891.415 829,892.5C 828.536,893.094 828.369,893.761 828.5,894.5C 827.508,894.328 826.842,894.662 826.5,895.5C 826.158,896.338 825.492,896.672 824.5,896.5C 824.44,895.957 824.107,895.624 823.5,895.5C 820.319,897.527 817.819,900.194 816,903.5C 812.85,902.276 810.017,902.943 807.5,905.5C 806.593,908.421 806.26,911.421 806.5,914.5C 804.097,914.393 802.264,915.393 801,917.5C 800.667,917.167 800.333,916.833 800,916.5C 799.517,917.448 799.351,918.448 799.5,919.5C 795.868,920.733 794.202,923.399 794.5,927.5C 788.167,933.833 781.833,940.167 775.5,946.5C 772.833,946.5 770.167,946.5 767.5,946.5C 768.952,945.698 770.618,945.198 772.5,945C 772.833,944.667 773.167,944.333 773.5,944C 715.187,944.818 656.854,944.485 598.5,943C 599.665,941.916 600.998,941.083 602.5,940.5C 603.641,938.579 603.808,936.579 603,934.5C 602.329,933.748 601.496,933.414 600.5,933.5C 603.177,930.809 604.51,927.475 604.5,923.5C 609.564,922.275 613.731,919.608 617,915.5C 618.481,912.89 619.648,910.223 620.5,907.5C 622.734,906.296 625.067,905.13 627.5,904C 629.649,900.186 632.483,897.019 636,894.5C 636.483,893.552 636.649,892.552 636.5,891.5C 638.433,891.271 640.1,890.438 641.5,889C 648.167,881 655.5,873.667 663.5,867C 664.448,866.517 665.448,866.351 666.5,866.5C 668.496,861.022 672.496,857.856 678.5,857C 682.154,853.7 684.487,849.7 685.5,845C 689.644,843.734 693.477,841.901 697,839.5C 698.144,834.863 700.31,830.863 703.5,827.5C 707.191,826.647 709.858,824.48 711.5,821C 767.393,820.534 823.393,820.368 879.5,820.5C 879.215,822.288 879.548,823.955 880.5,825.5C 884.284,820.787 889.284,818.787 895.5,819.5C 895.5,818.167 895.5,816.833 895.5,815.5 Z"/></g>
<g><path style="opacity:1" fill="#704149" d="M 940.5,815.5 C 940.305,819.192 938.305,821.026 934.5,821C 932.754,823.456 930.754,825.622 928.5,827.5C 927.571,828.689 927.238,830.022 927.5,831.5C 922.291,832.848 918.291,836.015 915.5,841C 914.207,841.49 912.873,841.657 911.5,841.5C 911.5,843.5 911.5,845.5 911.5,847.5C 909.833,847.5 908.167,847.5 906.5,847.5C 906.67,848.822 906.337,849.989 905.5,851C 903.753,851.352 902.086,851.852 900.5,852.5C 908.655,843.072 917.322,834.072 926.5,825.5C 929.606,822.558 932.606,819.391 935.5,816C 937.134,815.506 938.801,815.34 940.5,815.5 Z"/></g>
<g><path style="opacity:1" fill="#863a42" d="M 940.5,815.5 C 950.167,815.5 959.833,815.5 969.5,815.5C 968.386,816.885 967.386,818.385 966.5,820C 962.326,823.662 957.826,826.828 953,829.5C 952.383,830.449 952.549,831.282 953.5,832C 949.545,835.493 946.212,839.326 943.5,843.5C 941.833,844.833 940.167,846.167 938.5,847.5C 934.378,849.787 931.045,852.954 928.5,857C 923.192,857.31 920.692,860.144 921,865.5C 917.286,868.051 914.119,871.051 911.5,874.5C 911.5,874.833 911.5,875.167 911.5,875.5C 908.833,877.833 906.167,880.167 903.5,882.5C 898.692,885.406 893.692,888.072 888.5,890.5C 887.108,895.226 884.108,898.226 879.5,899.5C 879.5,900.833 879.5,902.167 879.5,903.5C 877.801,903.34 876.134,903.506 874.5,904C 875.337,905.011 875.67,906.178 875.5,907.5C 874.167,907.5 872.833,907.5 871.5,907.5C 871.5,908.833 871.5,910.167 871.5,911.5C 870.127,911.343 868.793,911.51 867.5,912C 868.202,915.113 867.035,917.613 864,919.5C 862.23,918.724 860.397,918.89 858.5,920C 858.833,920.333 859.167,920.667 859.5,921C 855.789,923.436 854.456,926.603 855.5,930.5C 850.5,936.167 845.167,941.5 839.5,946.5C 830.167,946.5 820.833,946.5 811.5,946.5C 811.281,945.325 811.614,944.325 812.5,943.5C 813.927,940.91 816.093,939.244 819,938.5C 819.273,936.671 820.107,935.171 821.5,934C 824.152,932.847 826.152,931.013 827.5,928.5C 828.689,927.571 830.022,927.238 831.5,927.5C 831.5,925.833 831.5,924.167 831.5,922.5C 835.849,919.991 839.516,916.491 842.5,912C 844.134,911.506 845.801,911.34 847.5,911.5C 847.5,909.833 847.5,908.167 847.5,906.5C 850.815,906.028 853.149,904.195 854.5,901C 857.772,900.563 859.439,898.73 859.5,895.5C 860.833,895.5 862.167,895.5 863.5,895.5C 865.552,892.405 867.385,889.072 869,885.5C 870.491,883.996 872.324,883.163 874.5,883C 875.329,881.184 876.163,879.351 877,877.5C 883.975,871.172 890.975,864.839 898,858.5C 898.938,856.512 899.772,854.512 900.5,852.5C 902.086,851.852 903.753,851.352 905.5,851C 906.337,849.989 906.67,848.822 906.5,847.5C 908.167,847.5 909.833,847.5 911.5,847.5C 911.5,845.5 911.5,843.5 911.5,841.5C 912.873,841.657 914.207,841.49 915.5,841C 918.291,836.015 922.291,832.848 927.5,831.5C 927.238,830.022 927.571,828.689 928.5,827.5C 930.754,825.622 932.754,823.456 934.5,821C 938.305,821.026 940.305,819.192 940.5,815.5 Z"/></g>
<g><path style="opacity:1" fill="#76484e" d="M 711.5,815.5 C 711.159,818.516 709.993,821.182 708,823.5C 705.882,824.283 704.382,825.616 703.5,827.5C 700.31,830.863 698.144,834.863 697,839.5C 693.477,841.901 689.644,843.734 685.5,845C 684.487,849.7 682.154,853.7 678.5,857C 672.496,857.856 668.496,861.022 666.5,866.5C 665.448,866.351 664.448,866.517 663.5,867C 655.5,873.667 648.167,881 641.5,889C 640.1,890.438 638.433,891.271 636.5,891.5C 636.649,892.552 636.483,893.552 636,894.5C 632.483,897.019 629.649,900.186 627.5,904C 625.067,905.13 622.734,906.296 620.5,907.5C 623.963,903.536 627.63,899.702 631.5,896C 608.663,895.832 585.996,895.332 563.5,894.5C 586.167,894.5 608.833,894.5 631.5,894.5C 631.33,893.178 631.663,892.011 632.5,891C 634.631,890.457 636.631,889.624 638.5,888.5C 662.548,863.785 686.881,839.452 711.5,815.5 Z"/></g>
<g><path style="opacity:1" fill="#753941" d="M 892.5,827.5 C 886.803,834.288 881.136,840.955 875.5,847.5C 874.323,850.624 871.99,852.624 868.5,853.5C 867.872,855.258 866.872,856.758 865.5,858C 862.684,859.655 860.017,861.488 857.5,863.5C 858.32,859.183 860.987,856.683 865.5,856C 866.278,852.721 868.278,850.555 871.5,849.5C 871.885,844.217 874.552,840.717 879.5,839C 883.146,835.684 886.479,832.018 889.5,828C 890.448,827.517 891.448,827.351 892.5,827.5 Z"/></g>
<g><path style="opacity:1" fill="#482a2b" d="M 904.5,815.5 C 908.439,815.178 909.272,816.511 907,819.5C 905.108,820.13 903.441,821.13 902,822.5C 901.418,826.251 899.251,827.918 895.5,827.5C 895.5,828.833 895.5,830.167 895.5,831.5C 894.167,831.5 892.833,831.5 891.5,831.5C 891.649,832.552 891.483,833.552 891,834.5C 887.163,836.996 884.996,840.496 884.5,845C 881.487,845.909 878.487,846.742 875.5,847.5C 881.136,840.955 886.803,834.288 892.5,827.5C 897.395,824.36 901.395,820.36 904.5,815.5 Z"/></g>
<g><path style="opacity:1" fill="#562d31" d="M 969.5,815.5 C 970.043,815.56 970.376,815.893 970.5,816.5C 969.469,817.7 968.635,819.034 968,820.5C 959.067,826.43 951.9,833.93 946.5,843C 945.552,843.483 944.552,843.649 943.5,843.5C 946.212,839.326 949.545,835.493 953.5,832C 952.549,831.282 952.383,830.449 953,829.5C 957.826,826.828 962.326,823.662 966.5,820C 967.386,818.385 968.386,816.885 969.5,815.5 Z"/></g>
<g><path style="opacity:1" fill="#3a2a2d" d="M 926.5,825.5 C 917.322,834.072 908.655,843.072 900.5,852.5C 896.847,855.754 893.181,859.088 889.5,862.5C 889.372,860.345 889.872,858.345 891,856.5C 894.635,854.351 897.135,851.351 898.5,847.5C 899.978,847.762 901.311,847.429 902.5,846.5C 903.005,843.812 904.338,841.645 906.5,840C 910.217,838.455 913.55,836.288 916.5,833.5C 917.759,828.241 921.092,825.574 926.5,825.5 Z"/></g>
<g><path style="opacity:1" fill="#603233" d="M 938.5,847.5 C 938.657,848.873 938.49,850.207 938,851.5C 934.833,853.333 932.333,855.833 930.5,859C 929.552,859.483 928.552,859.649 927.5,859.5C 927.5,860.833 927.5,862.167 927.5,863.5C 926.5,863.5 925.5,863.5 924.5,863.5C 923.975,867.523 921.641,869.69 917.5,870C 915.886,872.127 913.886,873.627 911.5,874.5C 914.119,871.051 917.286,868.051 921,865.5C 920.692,860.144 923.192,857.31 928.5,857C 931.045,852.954 934.378,849.787 938.5,847.5 Z"/></g>
<g><path style="opacity:1" fill="#402924" d="M 875.5,847.5 C 875.657,848.873 875.49,850.207 875,851.5C 872.167,853 870,855.167 868.5,858C 866.975,859.009 865.308,859.509 863.5,859.5C 863.5,860.833 863.5,862.167 863.5,863.5C 862.167,863.5 860.833,863.5 859.5,863.5C 859.657,864.873 859.49,866.207 859,867.5C 856.262,869.577 854.262,872.243 853,875.5C 850.358,877.238 847.524,878.571 844.5,879.5C 844.579,880.93 844.246,882.264 843.5,883.5C 840.348,885.316 838.348,887.983 837.5,891.5C 835.025,891.964 833.025,892.964 831.5,894.5C 830.5,894.5 829.5,894.5 828.5,894.5C 828.369,893.761 828.536,893.094 829,892.5C 831.172,891.415 833.172,890.081 835,888.5C 842.452,879.894 849.952,871.56 857.5,863.5C 860.017,861.488 862.684,859.655 865.5,858C 866.872,856.758 867.872,855.258 868.5,853.5C 871.99,852.624 874.323,850.624 875.5,847.5 Z"/></g>
<g><path style="opacity:1" fill="#3f282a" d="M 911.5,875.5 C 911.5,876.833 911.5,878.167 911.5,879.5C 910.5,879.5 909.5,879.5 908.5,879.5C 908.028,882.815 906.195,885.149 903,886.5C 902.63,891.314 900.13,893.648 895.5,893.5C 895.238,892.022 895.571,890.689 896.5,889.5C 898.881,887.119 901.215,884.785 903.5,882.5C 906.167,880.167 908.833,877.833 911.5,875.5 Z"/></g>
<g><path style="opacity:1" fill="#815054" d="M 903.5,882.5 C 901.215,884.785 898.881,887.119 896.5,889.5C 895.571,890.689 895.238,892.022 895.5,893.5C 917.994,894.497 940.661,894.831 963.5,894.5C 939.337,895.332 915.003,895.832 890.5,896C 878.965,907.702 867.298,919.202 855.5,930.5C 854.456,926.603 855.789,923.436 859.5,921C 859.167,920.667 858.833,920.333 858.5,920C 860.397,918.89 862.23,918.724 864,919.5C 867.035,917.613 868.202,915.113 867.5,912C 868.793,911.51 870.127,911.343 871.5,911.5C 871.5,910.167 871.5,908.833 871.5,907.5C 872.833,907.5 874.167,907.5 875.5,907.5C 875.67,906.178 875.337,905.011 874.5,904C 876.134,903.506 877.801,903.34 879.5,903.5C 879.5,902.167 879.5,900.833 879.5,899.5C 884.108,898.226 887.108,895.226 888.5,890.5C 893.692,888.072 898.692,885.406 903.5,882.5 Z"/></g>
<g><path style="opacity:1" fill="#84454d" d="M 824.5,896.5 C 824.631,897.239 824.464,897.906 824,898.5C 813.966,908.034 804.133,917.701 794.5,927.5C 794.202,923.399 795.868,920.733 799.5,919.5C 799.351,918.448 799.517,917.448 800,916.5C 800.333,916.833 800.667,917.167 801,917.5C 802.264,915.393 804.097,914.393 806.5,914.5C 806.26,911.421 806.593,908.421 807.5,905.5C 810.017,902.943 812.85,902.276 816,903.5C 817.819,900.194 820.319,897.527 823.5,895.5C 824.107,895.624 824.44,895.957 824.5,896.5 Z"/></g>
<g><path style="opacity:1" fill="#724b4e" d="M 900.5,852.5 C 899.772,854.512 898.938,856.512 898,858.5C 890.975,864.839 883.975,871.172 877,877.5C 876.163,879.351 875.329,881.184 874.5,883C 872.324,883.163 870.491,883.996 869,885.5C 867.385,889.072 865.552,892.405 863.5,895.5C 862.167,895.5 860.833,895.5 859.5,895.5C 859.439,898.73 857.772,900.563 854.5,901C 853.149,904.195 850.815,906.028 847.5,906.5C 847.5,908.167 847.5,909.833 847.5,911.5C 845.801,911.34 844.134,911.506 842.5,912C 839.516,916.491 835.849,919.991 831.5,922.5C 831.5,924.167 831.5,925.833 831.5,927.5C 830.022,927.238 828.689,927.571 827.5,928.5C 826.152,931.013 824.152,932.847 821.5,934C 820.107,935.171 819.273,936.671 819,938.5C 816.093,939.244 813.927,940.91 812.5,943.5C 811.614,944.325 811.281,945.325 811.5,946.5C 809.901,946.768 808.568,946.434 807.5,945.5C 823.632,928.868 839.965,912.368 856.5,896C 846.506,895.5 836.506,895.334 826.5,895.5C 826.842,894.662 827.508,894.328 828.5,894.5C 829.5,894.5 830.5,894.5 831.5,894.5C 840.506,894.666 849.506,894.5 858.5,894C 868.937,883.648 879.27,873.148 889.5,862.5C 893.181,859.088 896.847,855.754 900.5,852.5 Z"/></g>
<g><path style="opacity:1" fill="#74474d" d="M 620.5,907.5 C 619.648,910.223 618.481,912.89 617,915.5C 613.731,919.608 609.564,922.275 604.5,923.5C 609.5,917.833 614.833,912.5 620.5,907.5 Z"/></g>
<g><path style="opacity:1" fill="#7a4048" d="M 604.5,923.5 C 604.51,927.475 603.177,930.809 600.5,933.5C 599.5,933.5 598.5,933.5 597.5,933.5C 597.615,937.887 595.449,940.22 591,940.5C 590.405,941.899 590.572,943.232 591.5,944.5C 607.662,945.167 623.662,945.833 639.5,946.5C 620.326,946.83 601.326,946.497 582.5,945.5C 589.5,937.833 596.833,930.5 604.5,923.5 Z"/></g>
<g><path style="opacity:1" fill="#8e3546" d="M 600.5,933.5 C 601.496,933.414 602.329,933.748 603,934.5C 603.808,936.579 603.641,938.579 602.5,940.5C 600.998,941.083 599.665,941.916 598.5,943C 656.854,944.485 715.187,944.818 773.5,944C 773.167,944.333 772.833,944.667 772.5,945C 770.618,945.198 768.952,945.698 767.5,946.5C 724.833,946.5 682.167,946.5 639.5,946.5C 623.662,945.833 607.662,945.167 591.5,944.5C 590.572,943.232 590.405,941.899 591,940.5C 595.449,940.22 597.615,937.887 597.5,933.5C 598.5,933.5 599.5,933.5 600.5,933.5 Z"/></g>
<g><path style="opacity:1" fill="#b47f87" d="M 582.5,945.5 C 601.326,946.497 620.326,946.83 639.5,946.5C 682.167,946.5 724.833,946.5 767.5,946.5C 770.167,946.5 772.833,946.5 775.5,946.5C 710.999,947.832 646.332,947.832 581.5,946.5C 581.624,945.893 581.957,945.56 582.5,945.5 Z"/></g>
<g><path style="opacity:1" fill="#ab8184" d="M 807.5,945.5 C 808.568,946.434 809.901,946.768 811.5,946.5C 820.833,946.5 830.167,946.5 839.5,946.5C 828.66,947.824 817.66,947.824 806.5,946.5C 806.624,945.893 806.957,945.56 807.5,945.5 Z"/></g>
<g><path style="opacity:1" fill="#ecfffa" d="M 639.5,948.5 C 682.172,948.167 724.839,948.5 767.5,949.5C 746.167,949.833 724.833,950.167 703.5,950.5C 681.823,950.5 660.489,949.833 639.5,948.5 Z"/></g>
<g><path style="opacity:1" fill="#e4e4e4" d="M 252.5,963.5 C 253.713,964.497 253.546,965.497 252,966.5C 196.952,965.848 141.786,965.181 86.5,964.5C 142.003,964.832 197.336,964.499 252.5,963.5 Z"/></g>
</svg>
